<svg xmlns="http://www.w3.org/2000/svg" viewBox="0 0 600 158" role="img">
<style>
  .papel { fill: #fff5f5; }
  .fina { stroke: #f3c6c6; stroke-width: 0.5; }
  .gruesa { stroke: #e08c8c; stroke-width: 1; }
  .trazo { fill: none; stroke: #1d1d1f; stroke-width: 1.6; stroke-linejoin: round; stroke-linecap: round; }
  .pie { font: 12px system-ui, sans-serif; fill: #40484f; }
</style>
<rect class="papel" x="0" y="0" width="600" height="136"/>
<defs>
  <pattern id="mm" width="4" height="4" patternUnits="userSpaceOnUse">
    <path d="M 4 0 L 0 0 0 4" fill="none" class="fina"/>
  </pattern>
  <pattern id="cm" width="20" height="20" patternUnits="userSpaceOnUse">
    <rect width="20" height="20" fill="url(#mm)"/>
    <path d="M 20 0 L 0 0 0 20" fill="none" class="gruesa"/>
  </pattern>
</defs>
<rect x="0" y="0" width="600" height="136" fill="url(#cm)"/>
<polyline class="trazo" points="0.0,68.00 0.4,67.16 0.8,66.35 1.2,65.56 1.6,64.82 2.0,64.14 2.4,63.54 2.8,63.03 3.2,62.61 3.6,62.29 4.0,62.09 4.4,62.00 4.8,62.03 5.2,62.18 5.6,62.44 6.0,62.80 6.4,63.27 6.8,63.83 7.2,64.47 7.6,65.18 8.0,65.95 8.4,66.75 8.8,67.58 9.2,68.00 9.6,68.00 10.0,68.00 10.4,68.00 10.8,68.00 11.2,68.00 11.6,68.00 12.0,68.00 12.4,68.00 12.8,68.00 13.2,68.00 13.6,68.00 14.0,68.00 14.4,68.00 14.8,68.00 15.2,68.00 15.6,68.00 16.0,68.00 16.4,68.00 16.8,68.00 17.2,68.00 17.6,68.00 18.0,68.00 18.4,68.00 18.8,68.00 19.2,68.00 19.6,63.40 20.0,58.80 20.4,54.20 20.8,49.60 21.2,45.00 21.6,40.40 22.0,35.80 22.4,31.20 22.8,26.60 23.2,22.00 23.6,25.00 24.0,28.00 24.4,31.00 24.8,34.00 25.2,37.00 25.6,40.00 26.0,36.25 26.4,32.50 26.8,28.75 27.2,25.00 27.6,30.00 28.0,70.00 28.4,69.80 28.8,69.60 29.2,69.40 29.6,69.20 30.0,69.00 30.4,68.80 30.8,68.60 31.2,68.40 31.6,68.20 32.0,68.00 32.4,68.00 32.8,68.00 33.2,68.00 33.6,68.00 34.0,68.00 34.4,68.00 34.8,68.00 35.2,68.00 35.6,68.00 36.0,68.00 36.4,68.00 36.8,68.00 37.2,68.00 37.6,68.00 38.0,68.00 38.4,68.00 38.8,68.00 39.2,68.00 39.6,68.00 40.0,68.00 40.4,68.00 40.8,68.00 41.2,68.00 41.6,68.00 42.0,68.00 42.4,68.94 42.8,69.88 43.2,70.80 43.6,71.71 44.0,72.59 44.4,73.45 44.8,74.27 45.2,75.05 45.6,75.79 46.0,76.49 46.4,77.12 46.8,77.71 47.2,78.23 47.6,78.69 48.0,79.09 48.4,79.41 48.8,79.67 49.2,79.85 49.6,79.96 50.0,80.00 50.4,79.96 50.8,79.85 51.2,79.67 51.6,79.41 52.0,79.09 52.4,78.69 52.8,78.23 53.2,77.71 53.6,77.12 54.0,76.49 54.4,75.79 54.8,75.05 55.2,74.27 55.6,73.45 56.0,72.59 56.4,71.71 56.8,70.80 57.2,69.88 57.6,68.94 58.0,68.00 58.4,68.00 58.8,68.00 59.2,68.00 59.6,68.00 60.0,68.00 60.4,68.00 60.8,68.00 61.2,68.00 61.6,68.00 62.0,68.00 62.4,68.00 62.8,68.00 63.2,68.00 63.6,68.00 64.0,68.00 64.4,68.00 64.8,68.00 65.2,68.00 65.6,68.00 66.0,68.00 66.4,68.00 66.8,68.00 67.2,68.00 67.6,68.00 68.0,68.00 68.4,68.00 68.8,68.00 69.2,68.00 69.6,68.00 70.0,68.00 70.4,68.00 70.8,68.00 71.2,68.00 71.6,68.00 72.0,68.00 72.4,68.00 72.8,68.00 73.2,68.00 73.6,68.00 74.0,68.00 74.4,68.00 74.8,68.00 75.2,68.00 75.6,68.00 76.0,68.00 76.4,68.00 76.8,68.00 77.2,68.00 77.6,68.00 78.0,68.00 78.4,68.00 78.8,68.00 79.2,68.00 79.6,68.00 80.0,68.00 80.4,68.00 80.8,68.00 81.2,67.75 81.6,66.92 82.0,66.11 82.4,65.33 82.8,64.61 83.2,63.96 83.6,63.38 84.0,62.89 84.4,62.50 84.8,62.22 85.2,62.05 85.6,62.00 86.0,62.06 86.4,62.24 86.8,62.53 87.2,62.93 87.6,63.43 88.0,64.01 88.4,64.68 88.8,65.41 89.2,66.18 89.6,67.00 90.0,67.83 90.4,68.00 90.8,68.00 91.2,68.00 91.6,68.00 92.0,68.00 92.4,68.00 92.8,68.00 93.2,68.00 93.6,68.00 94.0,68.00 94.4,68.00 94.8,68.00 95.2,68.00 95.6,68.00 96.0,68.00 96.4,68.00 96.8,68.00 97.2,68.00 97.6,68.00 98.0,68.00 98.4,68.00 98.8,68.00 99.2,68.00 99.6,68.00 100.0,68.00 100.4,66.63 100.8,62.03 101.2,57.43 101.6,52.83 102.0,48.23 102.4,43.63 102.8,39.03 103.2,34.43 103.6,29.83 104.0,25.23 104.4,22.89 104.8,25.89 105.2,28.89 105.6,31.89 106.0,34.89 106.4,37.89 106.8,38.89 107.2,35.14 107.6,31.39 108.0,27.64 108.4,23.89 108.8,41.89 109.2,69.94 109.6,69.74 110.0,69.54 110.4,69.34 110.8,69.14 111.2,68.94 111.6,68.74 112.0,68.54 112.4,68.34 112.8,68.14 113.2,68.00 113.6,68.00 114.0,68.00 114.4,68.00 114.8,68.00 115.2,68.00 115.6,68.00 116.0,68.00 116.4,68.00 116.8,68.00 117.2,68.00 117.6,68.00 118.0,68.00 118.4,68.00 118.8,68.00 119.2,68.00 119.6,68.00 120.0,68.00 120.4,68.00 120.8,68.00 121.2,68.00 121.6,68.00 122.0,68.00 122.4,68.00 122.8,68.00 123.2,68.28 123.6,69.22 124.0,70.15 124.4,71.07 124.8,71.97 125.2,72.85 125.6,73.70 126.0,74.51 126.4,75.28 126.8,76.00 127.2,76.68 127.6,77.30 128.0,77.87 128.4,78.38 128.8,78.82 129.2,79.19 129.6,79.50 130.0,79.73 130.4,79.89 130.8,79.98 131.2,80.00 131.6,79.94 132.0,79.81 132.4,79.60 132.8,79.32 133.2,78.98 133.6,78.56 134.0,78.08 134.4,77.54 134.8,76.94 135.2,76.28 135.6,75.58 136.0,74.82 136.4,74.03 136.8,73.20 137.2,72.33 137.6,71.44 138.0,70.53 138.4,69.60 138.8,68.66 139.2,68.00 139.6,68.00 140.0,68.00 140.4,68.00 140.8,68.00 141.2,68.00 141.6,68.00 142.0,68.00 142.4,68.00 142.8,68.00 143.2,68.00 143.6,68.00 144.0,68.00 144.4,68.00 144.8,68.00 145.2,68.00 145.6,68.00 146.0,68.00 146.4,68.00 146.8,68.00 147.2,68.00 147.6,68.00 148.0,68.00 148.4,68.00 148.8,68.00 149.2,68.00 149.6,68.00 150.0,68.00 150.4,68.00 150.8,68.00 151.2,68.00 151.6,68.00 152.0,68.00 152.4,68.00 152.8,68.00 153.2,68.00 153.6,68.00 154.0,68.00 154.4,68.00 154.8,68.00 155.2,68.00 155.6,68.00 156.0,68.00 156.4,68.00 156.8,68.00 157.2,68.00 157.6,68.00 158.0,68.00 158.4,68.00 158.8,68.00 159.2,68.00 159.6,68.00 160.0,68.00 160.4,68.00 160.8,68.00 161.2,68.00 161.6,68.00 162.0,68.00 162.4,67.50 162.8,66.68 163.2,65.87 163.6,65.11 164.0,64.41 164.4,63.78 164.8,63.22 165.2,62.76 165.6,62.41 166.0,62.16 166.4,62.03 166.8,62.01 167.2,62.11 167.6,62.32 168.0,62.64 168.4,63.07 168.8,63.59 169.2,64.20 169.6,64.89 170.0,65.63 170.4,66.42 170.8,67.24 171.2,68.00 171.6,68.00 172.0,68.00 172.4,68.00 172.8,68.00 173.2,68.00 173.6,68.00 174.0,68.00 174.4,68.00 174.8,68.00 175.2,68.00 175.6,68.00 176.0,68.00 176.4,68.00 176.8,68.00 177.2,68.00 177.6,68.00 178.0,68.00 178.4,68.00 178.8,68.00 179.2,68.00 179.6,68.00 180.0,68.00 180.4,68.00 180.8,68.00 181.2,68.00 181.6,65.26 182.0,60.66 182.4,56.06 182.8,51.46 183.2,46.86 183.6,42.26 184.0,37.66 184.4,33.06 184.8,28.46 185.2,23.86 185.6,23.78 186.0,26.78 186.4,29.78 186.8,32.78 187.2,35.78 187.6,38.78 188.0,37.77 188.4,34.02 188.8,30.27 189.2,26.52 189.6,22.77 190.0,53.78 190.4,69.88 190.8,69.68 191.2,69.48 191.6,69.28 192.0,69.08 192.4,68.88 192.8,68.68 193.2,68.48 193.6,68.28 194.0,68.08 194.4,68.00 194.8,68.00 195.2,68.00 195.6,68.00 196.0,68.00 196.4,68.00 196.8,68.00 197.2,68.00 197.6,68.00 198.0,68.00 198.4,68.00 198.8,68.00 199.2,68.00 199.6,68.00 200.0,68.00 200.4,68.00 200.8,68.00 201.2,68.00 201.6,68.00 202.0,68.00 202.4,68.00 202.8,68.00 203.2,68.00 203.6,68.00 204.0,68.00 204.4,68.56 204.8,69.50 205.2,70.43 205.6,71.34 206.0,72.24 206.4,73.10 206.8,73.94 207.2,74.74 207.6,75.50 208.0,76.21 208.4,76.87 208.8,77.48 209.2,78.03 209.6,78.51 210.0,78.93 210.4,79.29 210.8,79.57 211.2,79.79 211.6,79.93 212.0,79.99 212.4,79.99 212.8,79.91 213.2,79.75 213.6,79.52 214.0,79.23 214.4,78.86 214.8,78.43 215.2,77.93 215.6,77.37 216.0,76.75 216.4,76.08 216.8,75.36 217.2,74.59 217.6,73.79 218.0,72.94 218.4,72.07 218.8,71.17 219.2,70.25 219.6,69.32 220.0,68.38 220.4,68.00 220.8,68.00 221.2,68.00 221.6,68.00 222.0,68.00 222.4,68.00 222.8,68.00 223.2,68.00 223.6,68.00 224.0,68.00 224.4,68.00 224.8,68.00 225.2,68.00 225.6,68.00 226.0,68.00 226.4,68.00 226.8,68.00 227.2,68.00 227.6,68.00 228.0,68.00 228.4,68.00 228.8,68.00 229.2,68.00 229.6,68.00 230.0,68.00 230.4,68.00 230.8,68.00 231.2,68.00 231.6,68.00 232.0,68.00 232.4,68.00 232.8,68.00 233.2,68.00 233.6,68.00 234.0,68.00 234.4,68.00 234.8,68.00 235.2,68.00 235.6,68.00 236.0,68.00 236.4,68.00 236.8,68.00 237.2,68.00 237.6,68.00 238.0,68.00 238.4,68.00 238.8,68.00 239.2,68.00 239.6,68.00 240.0,68.00 240.4,68.00 240.8,68.00 241.2,68.00 241.6,68.00 242.0,68.00 242.4,68.00 242.8,68.00 243.2,68.00 243.6,67.25 244.0,66.43 244.4,65.64 244.8,64.90 245.2,64.21 245.6,63.60 246.0,63.08 246.4,62.65 246.8,62.32 247.2,62.11 247.6,62.01 248.0,62.02 248.4,62.16 248.8,62.40 249.2,62.76 249.6,63.22 250.0,63.77 250.4,64.40 250.8,65.10 251.2,65.86 251.6,66.66 252.0,67.49 252.4,68.00 252.8,68.00 253.2,68.00 253.6,68.00 254.0,68.00 254.4,68.00 254.8,68.00 255.2,68.00 255.6,68.00 256.0,68.00 256.4,68.00 256.8,68.00 257.2,68.00 257.6,68.00 258.0,68.00 258.4,68.00 258.8,68.00 259.2,68.00 259.6,68.00 260.0,68.00 260.4,68.00 260.8,68.00 261.2,68.00 261.6,68.00 262.0,68.00 262.4,68.00 262.8,63.90 263.2,59.30 263.6,54.70 264.0,50.10 264.4,45.50 264.8,40.90 265.2,36.30 265.6,31.70 266.0,27.10 266.4,22.50 266.8,24.68 267.2,27.68 267.6,30.68 268.0,33.68 268.4,36.68 268.8,39.68 269.2,36.66 269.6,32.91 270.0,29.16 270.4,25.41 270.8,25.68 271.2,65.68 271.6,69.82 272.0,69.62 272.4,69.42 272.8,69.22 273.2,69.02 273.6,68.82 274.0,68.62 274.4,68.42 274.8,68.22 275.2,68.02 275.6,68.00 276.0,68.00 276.4,68.00 276.8,68.00 277.2,68.00 277.6,68.00 278.0,68.00 278.4,68.00 278.8,68.00 279.2,68.00 279.6,68.00 280.0,68.00 280.4,68.00 280.8,68.00 281.2,68.00 281.6,68.00 282.0,68.00 282.4,68.00 282.8,68.00 283.2,68.00 283.6,68.00 284.0,68.00 284.4,68.00 284.8,68.00 285.2,68.00 285.6,68.84 286.0,69.78 286.4,70.70 286.8,71.61 287.2,72.50 287.6,73.36 288.0,74.18 288.4,74.97 288.8,75.72 289.2,76.41 289.6,77.06 290.0,77.65 290.4,78.18 290.8,78.65 291.2,79.05 291.6,79.38 292.0,79.64 292.4,79.84 292.8,79.95 293.2,80.00 293.6,79.97 294.0,79.87 294.4,79.69 294.8,79.44 295.2,79.13 295.6,78.74 296.0,78.28 296.4,77.77 296.8,77.19 297.2,76.56 297.6,75.87 298.0,75.14 298.4,74.36 298.8,73.54 299.2,72.69 299.6,71.80 300.0,70.90 300.4,69.98 300.8,69.04 301.2,68.10 301.6,68.00 302.0,68.00 302.4,68.00 302.8,68.00 303.2,68.00 303.6,68.00 304.0,68.00 304.4,68.00 304.8,68.00 305.2,68.00 305.6,68.00 306.0,68.00 306.4,68.00 306.8,68.00 307.2,68.00 307.6,68.00 308.0,68.00 308.4,68.00 308.8,68.00 309.2,68.00 309.6,68.00 310.0,68.00 310.4,68.00 310.8,68.00 311.2,68.00 311.6,68.00 312.0,68.00 312.4,68.00 312.8,68.00 313.2,68.00 313.6,68.00 314.0,68.00 314.4,68.00 314.8,68.00 315.2,68.00 315.6,68.00 316.0,68.00 316.4,68.00 316.8,68.00 317.2,68.00 317.6,68.00 318.0,68.00 318.4,68.00 318.8,68.00 319.2,68.00 319.6,68.00 320.0,68.00 320.4,68.00 320.8,68.00 321.2,68.00 321.6,68.00 322.0,68.00 322.4,68.00 322.8,68.00 323.2,68.00 323.6,68.00 324.0,68.00 324.4,67.84 324.8,67.01 325.2,66.19 325.6,65.42 326.0,64.69 326.4,64.02 326.8,63.44 327.2,62.94 327.6,62.54 328.0,62.25 328.4,62.07 328.8,62.00 329.2,62.05 329.6,62.22 330.0,62.50 330.4,62.88 330.8,63.37 331.2,63.95 331.6,64.60 332.0,65.32 332.4,66.10 332.8,66.91 333.2,67.74 333.6,68.00 334.0,68.00 334.4,68.00 334.8,68.00 335.2,68.00 335.6,68.00 336.0,68.00 336.4,68.00 336.8,68.00 337.2,68.00 337.6,68.00 338.0,68.00 338.4,68.00 338.8,68.00 339.2,68.00 339.6,68.00 340.0,68.00 340.4,68.00 340.8,68.00 341.2,68.00 341.6,68.00 342.0,68.00 342.4,68.00 342.8,68.00 343.2,68.00 343.6,67.13 344.0,62.53 344.4,57.93 344.8,53.33 345.2,48.73 345.6,44.13 346.0,39.53 346.4,34.93 346.8,30.33 347.2,25.73 347.6,22.57 348.0,25.57 348.4,28.57 348.8,31.57 349.2,34.57 349.6,37.57 350.0,39.29 350.4,35.54 350.8,31.79 351.2,28.04 351.6,24.29 352.0,37.57 352.4,69.96 352.8,69.76 353.2,69.56 353.6,69.36 354.0,69.16 354.4,68.96 354.8,68.76 355.2,68.56 355.6,68.36 356.0,68.16 356.4,68.00 356.8,68.00 357.2,68.00 357.6,68.00 358.0,68.00 358.4,68.00 358.8,68.00 359.2,68.00 359.6,68.00 360.0,68.00 360.4,68.00 360.8,68.00 361.2,68.00 361.6,68.00 362.0,68.00 362.4,68.00 362.8,68.00 363.2,68.00 363.6,68.00 364.0,68.00 364.4,68.00 364.8,68.00 365.2,68.00 365.6,68.00 366.0,68.00 366.4,68.18 366.8,69.12 367.2,70.05 367.6,70.97 368.0,71.88 368.4,72.76 368.8,73.61 369.2,74.42 369.6,75.20 370.0,75.93 370.4,76.61 370.8,77.24 371.2,77.81 371.6,78.32 372.0,78.77 372.4,79.15 372.8,79.47 373.2,79.71 373.6,79.88 374.0,79.98 374.4,80.00 374.8,79.95 375.2,79.82 375.6,79.63 376.0,79.36 376.4,79.02 376.8,78.61 377.2,78.14 377.6,77.60 378.0,77.01 378.4,76.36 378.8,75.66 379.2,74.91 379.6,74.12 380.0,73.29 380.4,72.43 380.8,71.54 381.2,70.63 381.6,69.70 382.0,68.76 382.4,68.00 382.8,68.00 383.2,68.00 383.6,68.00 384.0,68.00 384.4,68.00 384.8,68.00 385.2,68.00 385.6,68.00 386.0,68.00 386.4,68.00 386.8,68.00 387.2,68.00 387.6,68.00 388.0,68.00 388.4,68.00 388.8,68.00 389.2,68.00 389.6,68.00 390.0,68.00 390.4,68.00 390.8,68.00 391.2,68.00 391.6,68.00 392.0,68.00 392.4,68.00 392.8,68.00 393.2,68.00 393.6,68.00 394.0,68.00 394.4,68.00 394.8,68.00 395.2,68.00 395.6,68.00 396.0,68.00 396.4,68.00 396.8,68.00 397.2,68.00 397.6,68.00 398.0,68.00 398.4,68.00 398.8,68.00 399.2,68.00 399.6,68.00 400.0,68.00 400.4,68.00 400.8,68.00 401.2,68.00 401.6,68.00 402.0,68.00 402.4,68.00 402.8,68.00 403.2,68.00 403.6,68.00 404.0,68.00 404.4,68.00 404.8,68.00 405.2,68.00 405.6,67.59 406.0,66.76 406.4,65.96 406.8,65.19 407.2,64.48 407.6,63.84 408.0,63.28 408.4,62.81 408.8,62.44 409.2,62.18 409.6,62.03 410.0,62.00 410.4,62.09 410.8,62.29 411.2,62.60 411.6,63.02 412.0,63.53 412.4,64.13 412.8,64.81 413.2,65.55 413.6,66.34 414.0,67.15 414.4,67.99 414.8,68.00 415.2,68.00 415.6,68.00 416.0,68.00 416.4,68.00 416.8,68.00 417.2,68.00 417.6,68.00 418.0,68.00 418.4,68.00 418.8,68.00 419.2,68.00 419.6,68.00 420.0,68.00 420.4,68.00 420.8,68.00 421.2,68.00 421.6,68.00 422.0,68.00 422.4,68.00 422.8,68.00 423.2,68.00 423.6,68.00 424.0,68.00 424.4,68.00 424.8,65.76 425.2,61.16 425.6,56.56 426.0,51.96 426.4,47.36 426.8,42.76 427.2,38.16 427.6,33.56 428.0,28.96 428.4,24.36 428.8,23.46 429.2,26.46 429.6,29.46 430.0,32.46 430.4,35.46 430.8,38.46 431.2,38.18 431.6,34.43 432.0,30.68 432.4,26.93 432.8,23.18 433.2,49.46 433.6,69.90 434.0,69.70 434.4,69.50 434.8,69.30 435.2,69.10 435.6,68.90 436.0,68.70 436.4,68.50 436.8,68.30 437.2,68.10 437.6,68.00 438.0,68.00 438.4,68.00 438.8,68.00 439.2,68.00 439.6,68.00 440.0,68.00 440.4,68.00 440.8,68.00 441.2,68.00 441.6,68.00 442.0,68.00 442.4,68.00 442.8,68.00 443.2,68.00 443.6,68.00 444.0,68.00 444.4,68.00 444.8,68.00 445.2,68.00 445.6,68.00 446.0,68.00 446.4,68.00 446.8,68.00 447.2,68.00 447.6,68.46 448.0,69.40 448.4,70.33 448.8,71.25 449.2,72.14 449.6,73.01 450.0,73.85 450.4,74.66 450.8,75.42 451.2,76.14 451.6,76.80 452.0,77.42 452.4,77.97 452.8,78.46 453.2,78.89 453.6,79.25 454.0,79.55 454.4,79.77 454.8,79.92 455.2,79.99 455.6,79.99 456.0,79.92 456.4,79.77 456.8,79.55 457.2,79.26 457.6,78.90 458.0,78.48 458.4,77.98 458.8,77.43 459.2,76.82 459.6,76.15 460.0,75.44 460.4,74.68 460.8,73.87 461.2,73.04 461.6,72.17 462.0,71.27 462.4,70.35 462.8,69.42 463.2,68.48 463.6,68.00 464.0,68.00 464.4,68.00 464.8,68.00 465.2,68.00 465.6,68.00 466.0,68.00 466.4,68.00 466.8,68.00 467.2,68.00 467.6,68.00 468.0,68.00 468.4,68.00 468.8,68.00 469.2,68.00 469.6,68.00 470.0,68.00 470.4,68.00 470.8,68.00 471.2,68.00 471.6,68.00 472.0,68.00 472.4,68.00 472.8,68.00 473.2,68.00 473.6,68.00 474.0,68.00 474.4,68.00 474.8,68.00 475.2,68.00 475.6,68.00 476.0,68.00 476.4,68.00 476.8,68.00 477.2,68.00 477.6,68.00 478.0,68.00 478.4,68.00 478.8,68.00 479.2,68.00 479.6,68.00 480.0,68.00 480.4,68.00 480.8,68.00 481.2,68.00 481.6,68.00 482.0,68.00 482.4,68.00 482.8,68.00 483.2,68.00 483.6,68.00 484.0,68.00 484.4,68.00 484.8,68.00 485.2,68.00 485.6,68.00 486.0,68.00 486.4,68.00 486.8,67.34 487.2,66.52 487.6,65.73 488.0,64.98 488.4,64.28 488.8,63.66 489.2,63.13 489.6,62.69 490.0,62.35 490.4,62.13 490.8,62.01 491.2,62.02 491.6,62.14 492.0,62.37 492.4,62.72 492.8,63.16 493.2,63.70 493.6,64.33 494.0,65.02 494.4,65.78 494.8,66.58 495.2,67.40 495.6,68.00 496.0,68.00 496.4,68.00 496.8,68.00 497.2,68.00 497.6,68.00 498.0,68.00 498.4,68.00 498.8,68.00 499.2,68.00 499.6,68.00 500.0,68.00 500.4,68.00 500.8,68.00 501.2,68.00 501.6,68.00 502.0,68.00 502.4,68.00 502.8,68.00 503.2,68.00 503.6,68.00 504.0,68.00 504.4,68.00 504.8,68.00 505.2,68.00 505.6,68.00 506.0,64.39 506.4,59.79 506.8,55.19 507.2,50.59 507.6,45.99 508.0,41.39 508.4,36.79 508.8,32.19 509.2,27.59 509.6,22.99 510.0,24.35 510.4,27.35 510.8,30.35 511.2,33.35 511.6,36.35 512.0,39.35 512.4,37.06 512.8,33.31 513.2,29.56 513.6,25.81 514.0,22.06 514.4,61.35 514.8,69.84 515.2,69.64 515.6,69.44 516.0,69.24 516.4,69.04 516.8,68.84 517.2,68.64 517.6,68.44 518.0,68.24 518.4,68.04 518.8,68.00 519.2,68.00 519.6,68.00 520.0,68.00 520.4,68.00 520.8,68.00 521.2,68.00 521.6,68.00 522.0,68.00 522.4,68.00 522.8,68.00 523.2,68.00 523.6,68.00 524.0,68.00 524.4,68.00 524.8,68.00 525.2,68.00 525.6,68.00 526.0,68.00 526.4,68.00 526.8,68.00 527.2,68.00 527.6,68.00 528.0,68.00 528.4,68.00 528.8,68.74 529.2,69.68 529.6,70.60 530.0,71.51 530.4,72.40 530.8,73.27 531.2,74.10 531.6,74.89 532.0,75.64 532.4,76.34 532.8,76.99 533.2,77.59 533.6,78.12 534.0,78.60 534.4,79.01 534.8,79.35 535.2,79.62 535.6,79.82 536.0,79.95 536.4,80.00 536.8,79.98 537.2,79.88 537.6,79.71 538.0,79.47 538.4,79.16 538.8,78.78 539.2,78.34 539.6,77.83 540.0,77.26 540.4,76.63 540.8,75.95 541.2,75.22 541.6,74.44 542.0,73.63 542.4,72.78 542.8,71.90 543.2,71.00 543.6,70.08 544.0,69.14 544.4,68.20 544.8,68.00 545.2,68.00 545.6,68.00 546.0,68.00 546.4,68.00 546.8,68.00 547.2,68.00 547.6,68.00 548.0,68.00 548.4,68.00 548.8,68.00 549.2,68.00 549.6,68.00 550.0,68.00 550.4,68.00 550.8,68.00 551.2,68.00 551.6,68.00 552.0,68.00 552.4,68.00 552.8,68.00 553.2,68.00 553.6,68.00 554.0,68.00 554.4,68.00 554.8,68.00 555.2,68.00 555.6,68.00 556.0,68.00 556.4,68.00 556.8,68.00 557.2,68.00 557.6,68.00 558.0,68.00 558.4,68.00 558.8,68.00 559.2,68.00 559.6,68.00 560.0,68.00 560.4,68.00 560.8,68.00 561.2,68.00 561.6,68.00 562.0,68.00 562.4,68.00 562.8,68.00 563.2,68.00 563.6,68.00 564.0,68.00 564.4,68.00 564.8,68.00 565.2,68.00 565.6,68.00 566.0,68.00 566.4,68.00 566.8,68.00 567.2,68.00 567.6,67.93 568.0,67.10 568.4,66.28 568.8,65.50 569.2,64.76 569.6,64.09 570.0,63.50 570.4,62.99 570.8,62.58 571.2,62.27 571.6,62.08 572.0,62.00 572.4,62.04 572.8,62.20 573.2,62.46 573.6,62.84 574.0,63.31 574.4,63.88 574.8,64.53 575.2,65.24 575.6,66.01 576.0,66.82 576.4,67.65 576.8,68.00 577.2,68.00 577.6,68.00 578.0,68.00 578.4,68.00 578.8,68.00 579.2,68.00 579.6,68.00 580.0,68.00 580.4,68.00 580.8,68.00 581.2,68.00 581.6,68.00 582.0,68.00 582.4,68.00 582.8,68.00 583.2,68.00 583.6,68.00 584.0,68.00 584.4,68.00 584.8,68.00 585.2,68.00 585.6,68.00 586.0,68.00 586.4,68.00 586.8,67.63 587.2,63.03 587.6,58.43 588.0,53.83 588.4,49.23 588.8,44.63 589.2,40.03 589.6,35.43 590.0,30.83 590.4,26.23 590.8,22.24 591.2,25.24 591.6,28.24 592.0,31.24 592.4,34.24 592.8,37.24 593.2,39.70 593.6,35.95 594.0,32.20 594.4,28.45 594.8,24.70 595.2,33.24 595.6,69.98 596.0,69.78 596.4,69.58 596.8,69.38 597.2,69.18 597.6,68.98 598.0,68.78 598.4,68.58 598.8,68.38 599.2,68.18 599.6,68.00 600.0,68.00"/>
<text x="2" y="152" class="pie">V6 — 25 mm/s, 10 mm/mV</text>
</svg>
