<svg xmlns="http://www.w3.org/2000/svg" viewBox="0 0 640 260" role="img">
<style>
  .fondo { fill: #fff; }
  .rejilla { stroke: #d8dee6; stroke-width: 1; }
  .curva { fill: none; stroke: #b3261e; stroke-width: 2; stroke-linejoin: round; }
  .eje, .titulo, .nota { font: 12px system-ui, sans-serif; fill: #40484f; }
  .titulo { font-weight: 600; }
</style>
<rect class="fondo" x="0" y="0" width="640" height="260"/>
<line x1="46" y1="234" x2="630" y2="234" class="rejilla"/><text x="38" y="238" class="eje" text-anchor="end">0</text>
<line x1="46" y1="209" x2="630" y2="209" class="rejilla"/><text x="38" y="213" class="eje" text-anchor="end">40</text>
<line x1="46" y1="184" x2="630" y2="184" class="rejilla"/><text x="38" y="188" class="eje" text-anchor="end">80</text>
<line x1="46" y1="159" x2="630" y2="159" class="rejilla"/><text x="38" y="163" class="eje" text-anchor="end">120</text>
<line x1="46" y1="134" x2="630" y2="134" class="rejilla"/><text x="38" y="138" class="eje" text-anchor="end">160</text>
<line x1="46" y1="109" x2="630" y2="109" class="rejilla"/><text x="38" y="113" class="eje" text-anchor="end">200</text>
<line x1="46" y1="84" x2="630" y2="84" class="rejilla"/><text x="38" y="88" class="eje" text-anchor="end">240</text>
<line x1="46" y1="59" x2="630" y2="59" class="rejilla"/><text x="38" y="63" class="eje" text-anchor="end">280</text>
<line x1="46" y1="34" x2="630" y2="34" class="rejilla"/><text x="38" y="38" class="eje" text-anchor="end">320</text>
<line x1="46" y1="30" x2="46" y2="234" class="rejilla"/>
<polyline class="curva" points="46.0,190.3 46.4,186.9 46.8,184.8 47.2,183.0 47.6,181.3 47.9,179.8 48.3,178.4 48.7,177.1 49.1,175.8 49.5,174.5 49.9,173.3 50.3,172.2 50.7,171.0 51.1,169.9 51.5,168.8 51.8,167.8 52.2,166.7 52.6,165.7 53.0,164.7 53.4,163.7 53.8,162.7 54.2,161.8 54.6,160.8 55.0,159.9 55.3,159.0 55.7,159.5 56.1,160.0 56.5,160.4 56.9,160.9 57.3,161.4 57.7,161.9 58.1,162.3 58.5,162.8 58.8,163.3 59.2,163.8 59.6,164.3 60.0,164.7 60.4,165.2 60.8,165.7 61.2,166.2 61.6,166.6 62.0,167.1 62.4,167.6 62.7,168.1 63.1,168.5 63.5,169.0 63.9,169.5 64.3,170.0 64.7,170.5 65.1,170.9 65.5,171.4 65.9,171.9 66.2,172.4 66.6,172.8 67.0,173.3 67.4,173.8 67.8,174.3 68.2,174.8 68.6,175.2 69.0,175.7 69.4,176.2 69.7,177.0 70.1,177.8 70.5,178.4 70.9,178.9 71.3,179.2 71.7,179.3 72.1,179.2 72.5,178.9 72.9,178.4 73.3,177.7 73.6,177.0 74.0,176.2 74.4,176.5 74.8,176.7 75.2,177.0 75.6,177.3 76.0,177.5 76.4,177.8 76.8,178.1 77.1,178.3 77.5,178.5 77.9,178.8 78.3,179.0 78.7,179.2 79.1,179.5 79.5,179.7 79.9,179.9 80.3,180.1 80.7,180.3 81.0,180.5 81.4,180.7 81.8,180.9 82.2,181.1 82.6,181.3 83.0,181.4 83.4,181.6 83.8,181.8 84.2,182.0 84.5,182.1 84.9,182.3 85.3,182.4 85.7,182.6 86.1,182.8 86.5,182.9 86.9,183.1 87.3,183.2 87.7,183.3 88.0,183.5 88.4,183.6 88.8,183.8 89.2,183.9 89.6,184.0 90.0,184.1 90.4,184.3 90.8,184.4 91.2,184.5 91.6,184.6 91.9,184.7 92.3,184.8 92.7,184.9 93.1,185.1 93.5,185.2 93.9,185.3 94.3,185.4 94.7,185.5 95.1,185.6 95.4,185.6 95.8,185.7 96.2,185.8 96.6,185.9 97.0,186.0 97.4,186.1 97.8,186.2 98.2,186.3 98.6,186.3 98.9,186.4 99.3,186.5 99.7,186.6 100.1,186.6 100.5,186.7 100.9,186.8 101.3,186.9 101.7,186.9 102.1,187.0 102.5,187.1 102.8,187.1 103.2,187.2 103.6,187.2 104.0,187.3 104.4,187.4 104.8,187.4 105.2,187.5 105.6,187.5 106.0,187.6 106.3,187.6 106.7,187.7 107.1,187.7 107.5,187.8 107.9,187.8 108.3,187.9 108.7,187.9 109.1,188.0 109.5,188.0 109.9,188.1 110.2,188.1 110.6,188.2 111.0,188.2 111.4,188.2 111.8,188.3 112.2,188.3 112.6,188.4 113.0,188.4 113.4,188.4 113.7,188.5 114.1,188.5 114.5,188.5 114.9,188.6 115.3,188.6 115.7,188.6 116.1,188.7 116.5,188.7 116.9,188.7 117.2,188.8 117.6,188.8 118.0,188.8 118.4,188.9 118.8,188.9 119.2,188.9 119.6,188.9 120.0,189.0 120.4,189.0 120.8,189.0 121.1,189.0 121.5,189.1 121.9,189.1 122.3,189.1 122.7,189.1 123.1,189.2 123.5,189.2 123.9,190.2 124.3,186.9 124.6,184.8 125.0,183.0 125.4,181.3 125.8,179.8 126.2,178.4 126.6,177.1 127.0,175.8 127.4,174.5 127.8,173.3 128.1,172.2 128.5,171.0 128.9,169.9 129.3,168.8 129.7,167.8 130.1,166.7 130.5,165.7 130.9,164.7 131.3,163.7 131.7,162.7 132.0,161.8 132.4,160.8 132.8,159.9 133.2,159.0 133.6,159.5 134.0,160.0 134.4,160.4 134.8,160.9 135.2,161.4 135.5,161.9 135.9,162.3 136.3,162.8 136.7,163.3 137.1,163.8 137.5,164.3 137.9,164.7 138.3,165.2 138.7,165.7 139.1,166.2 139.4,166.6 139.8,167.1 140.2,167.6 140.6,168.1 141.0,168.5 141.4,169.0 141.8,169.5 142.2,170.0 142.6,170.5 142.9,170.9 143.3,171.4 143.7,171.9 144.1,172.4 144.5,172.8 144.9,173.3 145.3,173.8 145.7,174.3 146.1,174.8 146.4,175.2 146.8,175.7 147.2,176.2 147.6,177.0 148.0,177.8 148.4,178.4 148.8,178.9 149.2,179.2 149.6,179.3 150.0,179.2 150.3,178.9 150.7,178.4 151.1,177.7 151.5,177.0 151.9,176.2 152.3,176.5 152.7,176.7 153.1,177.0 153.5,177.3 153.8,177.5 154.2,177.8 154.6,178.1 155.0,178.3 155.4,178.5 155.8,178.8 156.2,179.0 156.6,179.2 157.0,179.5 157.3,179.7 157.7,179.9 158.1,180.1 158.5,180.3 158.9,180.5 159.3,180.7 159.7,180.9 160.1,181.1 160.5,181.3 160.9,181.4 161.2,181.6 161.6,181.8 162.0,182.0 162.4,182.1 162.8,182.3 163.2,182.4 163.6,182.6 164.0,182.8 164.4,182.9 164.7,183.1 165.1,183.2 165.5,183.3 165.9,183.5 166.3,183.6 166.7,183.8 167.1,183.9 167.5,184.0 167.9,184.1 168.3,184.3 168.6,184.4 169.0,184.5 169.4,184.6 169.8,184.7 170.2,184.8 170.6,184.9 171.0,185.1 171.4,185.2 171.8,185.3 172.1,185.4 172.5,185.5 172.9,185.6 173.3,185.6 173.7,185.7 174.1,185.8 174.5,185.9 174.9,186.0 175.3,186.1 175.6,186.2 176.0,186.3 176.4,186.3 176.8,186.4 177.2,186.5 177.6,186.6 178.0,186.6 178.4,186.7 178.8,186.8 179.2,186.9 179.5,186.9 179.9,187.0 180.3,187.1 180.7,187.1 181.1,187.2 181.5,187.2 181.9,187.3 182.3,187.4 182.7,187.4 183.0,187.5 183.4,187.5 183.8,187.6 184.2,187.6 184.6,187.7 185.0,187.7 185.4,187.8 185.8,187.8 186.2,187.9 186.5,187.9 186.9,188.0 187.3,188.0 187.7,188.1 188.1,188.1 188.5,188.2 188.9,188.2 189.3,188.2 189.7,188.3 190.1,188.3 190.4,188.4 190.8,188.4 191.2,188.4 191.6,188.5 192.0,188.5 192.4,188.5 192.8,188.6 193.2,188.6 193.6,188.6 193.9,188.7 194.3,188.7 194.7,188.7 195.1,188.8 195.5,188.8 195.9,188.8 196.3,188.9 196.7,188.9 197.1,188.9 197.5,188.9 197.8,189.0 198.2,189.0 198.6,189.0 199.0,189.0 199.4,189.1 199.8,189.1 200.2,189.1 200.6,189.1 201.0,189.2 201.3,189.2 201.7,190.2 202.1,186.9 202.5,184.8 202.9,183.0 203.3,181.3 203.7,179.8 204.1,178.4 204.5,177.1 204.8,175.8 205.2,174.5 205.6,173.3 206.0,172.2 206.4,171.0 206.8,169.9 207.2,168.8 207.6,167.8 208.0,166.7 208.4,165.7 208.7,164.7 209.1,163.7 209.5,162.7 209.9,161.8 210.3,160.8 210.7,159.9 211.1,159.0 211.5,159.5 211.9,160.0 212.2,160.4 212.6,160.9 213.0,161.4 213.4,161.9 213.8,162.3 214.2,162.8 214.6,163.3 215.0,163.8 215.4,164.3 215.7,164.7 216.1,165.2 216.5,165.7 216.9,166.2 217.3,166.6 217.7,167.1 218.1,167.6 218.5,168.1 218.9,168.5 219.3,169.0 219.6,169.5 220.0,170.0 220.4,170.5 220.8,170.9 221.2,171.4 221.6,171.9 222.0,172.4 222.4,172.8 222.8,173.3 223.1,173.8 223.5,174.3 223.9,174.8 224.3,175.2 224.7,175.7 225.1,176.2 225.5,177.0 225.9,177.8 226.3,178.4 226.7,178.9 227.0,179.2 227.4,179.3 227.8,179.2 228.2,178.9 228.6,178.4 229.0,177.7 229.4,177.0 229.8,176.2 230.2,176.5 230.5,176.7 230.9,177.0 231.3,177.3 231.7,177.5 232.1,177.8 232.5,178.1 232.9,178.3 233.3,178.5 233.7,178.8 234.0,179.0 234.4,179.2 234.8,179.5 235.2,179.7 235.6,179.9 236.0,180.1 236.4,180.3 236.8,180.5 237.2,180.7 237.6,180.9 237.9,181.1 238.3,181.3 238.7,181.4 239.1,181.6 239.5,181.8 239.9,182.0 240.3,182.1 240.7,46.5 241.1,46.5 241.4,46.5 241.8,46.5 242.2,46.5 242.6,46.5 243.0,46.5 243.4,46.5 243.8,46.5 244.2,46.5 244.6,46.5 244.9,46.5 245.3,46.5 245.7,46.5 246.1,46.5 246.5,46.5 246.9,46.5 247.3,46.5 247.7,46.5 248.1,46.5 248.5,46.5 248.8,46.5 249.2,46.5 249.6,46.5 250.0,46.5 250.4,46.5 250.8,46.5 251.2,46.5 251.6,46.5 252.0,46.5 252.3,46.5 252.7,46.5 253.1,46.5 253.5,46.5 253.9,46.5 254.3,46.5 254.7,46.5 255.1,46.5 255.5,46.5 255.9,46.5 256.2,46.5 256.6,46.5 257.0,46.5 257.4,46.5 257.8,46.5 258.2,46.5 258.6,46.5 259.0,46.5 259.4,46.5 259.7,46.5 260.1,46.5 260.5,46.5 260.9,46.5 261.3,46.5 261.7,46.5 262.1,46.5 262.5,46.5 262.9,46.5 263.2,46.5 263.6,46.5 264.0,46.5 264.4,46.5 264.8,46.5 265.2,46.5 265.6,46.5 266.0,46.5 266.4,46.5 266.8,46.5 267.1,46.5 267.5,46.5 267.9,46.5 268.3,46.5 268.7,46.5 269.1,46.5 269.5,46.5 269.9,46.5 270.3,46.5 270.6,46.5 271.0,46.5 271.4,46.5 271.8,46.5 272.2,46.5 272.6,46.5 273.0,46.5 273.4,46.5 273.8,46.5 274.1,46.5 274.5,46.5 274.9,46.5 275.3,46.5 275.7,46.5 276.1,46.5 276.5,46.5 276.9,46.5 277.3,46.5 277.7,46.5 278.0,46.5 278.4,46.5 278.8,46.5 279.2,46.5 279.6,46.5 280.0,46.5 280.4,46.5 280.8,46.5 281.2,46.5 281.5,46.5 281.9,46.5 282.3,46.5 282.7,46.5 283.1,46.5 283.5,46.5 283.9,46.5 284.3,46.5 284.7,46.5 285.1,46.5 285.4,46.5 285.8,46.5 286.2,46.5 286.6,46.5 287.0,46.5 287.4,46.5 287.8,46.5 288.2,46.5 288.6,46.5 288.9,46.5 289.3,46.5 289.7,46.5 290.1,46.5 290.5,46.5 290.9,46.5 291.3,46.5 291.7,46.5 292.1,46.5 292.4,46.5 292.8,46.5 293.2,46.5 293.6,46.5 294.0,46.5 294.4,46.5 294.8,46.5 295.2,46.5 295.6,46.5 296.0,46.5 296.3,46.5 296.7,46.5 297.1,46.5 297.5,46.5 297.9,46.5 298.3,46.5 298.7,46.5 299.1,171.4 299.5,167.9 299.8,164.8 300.2,162.0 300.6,159.6 301.0,157.6 301.4,156.0 301.8,154.9 302.2,154.1 302.6,153.8 303.0,153.8 303.3,154.6 303.7,155.6 304.1,156.9 304.5,158.3 304.9,159.7 305.3,161.2 305.7,162.6 306.1,163.9 306.5,165.2 306.9,166.4 307.2,167.6 307.6,168.7 308.0,170.9 308.4,173.0 308.8,175.0 309.2,177.0 309.6,178.8 310.0,180.5 310.4,182.1 310.7,183.5 311.1,184.7 311.5,185.8 311.9,186.7 312.3,187.4 312.7,187.9 313.1,188.4 313.5,188.6 313.9,188.7 314.3,188.7 314.6,188.6 315.0,188.4 315.4,188.1 315.8,187.7 316.2,187.2 316.6,186.7 317.0,186.1 317.4,185.6 317.8,185.0 318.1,184.4 318.5,183.9 318.9,183.3 319.3,182.8 319.7,182.4 320.1,181.9 320.5,181.6 320.9,181.3 321.3,181.0 321.6,180.8 322.0,180.7 322.4,180.6 322.8,180.6 323.2,180.6 323.6,180.7 324.0,180.9 324.4,181.1 324.8,181.3 325.2,181.6 325.5,181.9 325.9,182.2 326.3,182.6 326.7,183.0 327.1,183.3 327.5,183.7 327.9,184.1 328.3,184.5 328.7,184.9 329.0,185.3 329.4,185.6 329.8,185.9 330.2,186.3 330.6,186.5 331.0,186.8 331.4,187.1 331.8,187.3 332.2,187.5 332.5,187.6 332.9,187.8 333.3,187.9 333.7,188.0 334.1,188.0 334.5,188.1 334.9,188.1 335.3,188.1 335.7,188.1 336.1,188.1 336.4,188.1 336.8,188.0 337.2,188.0 337.6,187.9 338.0,187.9 338.4,187.8 338.8,187.8 339.2,187.7 339.6,187.7 339.9,187.6 340.3,187.6 340.7,187.6 341.1,187.5 341.5,187.5 341.9,187.5 342.3,187.5 342.7,187.5 343.1,187.5 343.5,187.6 343.8,187.6 344.2,187.7 344.6,187.7 345.0,187.8 345.4,187.8 345.8,187.9 346.2,188.0 346.6,188.0 347.0,188.1 347.3,188.2 347.7,188.3 348.1,188.3 348.5,188.4 348.9,188.5 349.3,188.6 349.7,188.6 350.1,188.7 350.5,188.8 350.8,188.8 351.2,188.9 351.6,189.0 352.0,189.0 352.4,189.1 352.8,189.1 353.2,189.1 353.6,189.2 354.0,189.2 354.4,189.2 354.7,189.2 355.1,189.3 355.5,189.3 355.9,189.3 356.3,189.3 356.7,189.3 357.1,189.3 357.5,190.4 357.9,187.0 358.2,184.8 358.6,183.0 359.0,181.4 359.4,179.9 359.8,178.4 360.2,177.1 360.6,175.8 361.0,174.5 361.4,173.3 361.7,172.1 362.1,171.0 362.5,169.8 362.9,168.8 363.3,167.7 363.7,166.6 364.1,165.6 364.5,164.6 364.9,163.6 365.3,162.7 365.6,161.7 366.0,160.8 366.4,159.9 366.8,158.9 367.2,159.4 367.6,159.9 368.0,160.4 368.4,160.9 368.8,161.4 369.1,161.8 369.5,162.3 369.9,162.8 370.3,163.3 370.7,163.8 371.1,164.3 371.5,164.7 371.9,165.2 372.3,165.7 372.7,166.2 373.0,166.7 373.4,167.1 373.8,167.6 374.2,168.1 374.6,168.6 375.0,169.1 375.4,169.5 375.8,170.0 376.2,170.5 376.5,171.0 376.9,171.4 377.3,171.9 377.7,172.4 378.1,172.9 378.5,173.3 378.9,173.8 379.3,174.3 379.7,174.8 380.0,175.2 380.4,175.7 380.8,176.2 381.2,177.0 381.6,177.7 382.0,178.4 382.4,178.9 382.8,179.2 383.2,179.3 383.6,179.2 383.9,178.9 384.3,178.4 384.7,177.7 385.1,177.0 385.5,176.2 385.9,176.5 386.3,176.7 386.7,177.0 387.1,177.3 387.4,177.5 387.8,177.8 388.2,178.0 388.6,178.3 389.0,178.5 389.4,178.8 389.8,179.0 390.2,179.2 390.6,179.5 390.9,179.7 391.3,179.9 391.7,180.1 392.1,180.3 392.5,180.5 392.9,180.7 393.3,180.9 393.7,181.1 394.1,181.3 394.5,181.4 394.8,181.6 395.2,181.8 395.6,182.0 396.0,182.1 396.4,182.3 396.8,182.4 397.2,182.6 397.6,182.8 398.0,182.9 398.3,183.1 398.7,183.2 399.1,183.3 399.5,183.5 399.9,183.6 400.3,183.8 400.7,183.9 401.1,184.0 401.5,184.1 401.9,184.3 402.2,184.4 402.6,184.5 403.0,184.6 403.4,184.7 403.8,184.8 404.2,184.9 404.6,185.1 405.0,185.2 405.4,185.3 405.7,185.4 406.1,185.5 406.5,185.6 406.9,185.6 407.3,185.7 407.7,185.8 408.1,185.9 408.5,186.0 408.9,186.1 409.2,186.2 409.6,186.3 410.0,186.3 410.4,186.4 410.8,186.5 411.2,186.6 411.6,186.6 412.0,186.7 412.4,186.8 412.8,186.9 413.1,186.9 413.5,187.0 413.9,187.1 414.3,187.1 414.7,187.2 415.1,187.2 415.5,187.3 415.9,187.4 416.3,187.4 416.6,187.5 417.0,187.5 417.4,187.6 417.8,187.6 418.2,187.7 418.6,187.7 419.0,187.8 419.4,187.8 419.8,187.9 420.1,187.9 420.5,188.0 420.9,188.0 421.3,188.1 421.7,188.1 422.1,188.2 422.5,188.2 422.9,188.2 423.3,188.3 423.7,188.3 424.0,188.4 424.4,188.4 424.8,188.4 425.2,188.5 425.6,188.5 426.0,188.5 426.4,188.6 426.8,188.6 427.2,188.6 427.5,188.7 427.9,188.7 428.3,188.7 428.7,188.8 429.1,188.8 429.5,188.8 429.9,188.9 430.3,188.9 430.7,188.9 431.1,188.9 431.4,189.0 431.8,189.0 432.2,189.0 432.6,189.0 433.0,189.1 433.4,189.1 433.8,189.1 434.2,189.1 434.6,189.2 434.9,189.2 435.3,190.2 435.7,186.9 436.1,184.8 436.5,183.0 436.9,181.3 437.3,179.8 437.7,178.4 438.1,177.1 438.4,175.8 438.8,174.5 439.2,173.3 439.6,172.2 440.0,171.0 440.4,169.9 440.8,168.8 441.2,167.8 441.6,166.7 442.0,165.7 442.3,164.7 442.7,163.7 443.1,162.7 443.5,161.8 443.9,160.8 444.3,159.9 444.7,159.0 445.1,159.5 445.5,160.0 445.8,160.4 446.2,160.9 446.6,161.4 447.0,161.9 447.4,162.3 447.8,162.8 448.2,163.3 448.6,163.8 449.0,164.3 449.3,164.7 449.7,165.2 450.1,165.7 450.5,166.2 450.9,166.6 451.3,167.1 451.7,167.6 452.1,168.1 452.5,168.5 452.9,169.0 453.2,169.5 453.6,170.0 454.0,170.5 454.4,170.9 454.8,171.4 455.2,171.9 455.6,172.4 456.0,172.8 456.4,173.3 456.7,173.8 457.1,174.3 457.5,174.8 457.9,175.2 458.3,175.7 458.7,176.2 459.1,177.0 459.5,177.7 459.9,178.4 460.3,178.9 460.6,179.2 461.0,179.3 461.4,179.2 461.8,178.9 462.2,178.4 462.6,177.8 463.0,177.0 463.4,176.2 463.8,176.5 464.1,176.7 464.5,177.0 464.9,177.3 465.3,177.5 465.7,177.8 466.1,178.1 466.5,178.3 466.9,178.5 467.3,178.8 467.6,179.0 468.0,179.2 468.4,179.5 468.8,179.7 469.2,179.9 469.6,180.1 470.0,180.3 470.4,180.5 470.8,180.7 471.2,180.9 471.5,181.1 471.9,181.3 472.3,181.4 472.7,181.6 473.1,181.8 473.5,182.0 473.9,182.1 474.3,182.3 474.7,182.4 475.0,182.6 475.4,182.8 475.8,182.9 476.2,183.1 476.6,183.2 477.0,183.3 477.4,183.5 477.8,183.6 478.2,183.8 478.5,183.9 478.9,184.0 479.3,184.1 479.7,184.3 480.1,184.4 480.5,184.5 480.9,184.6 481.3,184.7 481.7,184.8 482.1,184.9 482.4,185.1 482.8,185.2 483.2,185.3 483.6,185.4 484.0,185.5 484.4,185.6 484.8,185.6 485.2,185.7 485.6,185.8 485.9,185.9 486.3,186.0 486.7,186.1 487.1,186.2 487.5,186.3 487.9,186.3 488.3,186.4 488.7,186.5 489.1,186.6 489.5,186.6 489.8,186.7 490.2,186.8 490.6,186.9 491.0,186.9 491.4,187.0 491.8,187.1 492.2,187.1 492.6,187.2 493.0,187.2 493.3,187.3 493.7,187.4 494.1,187.4 494.5,187.5 494.9,187.5 495.3,187.6 495.7,187.6 496.1,187.7 496.5,187.7 496.8,187.8 497.2,187.8 497.6,187.9 498.0,187.9 498.4,188.0 498.8,188.0 499.2,188.1 499.6,188.1 500.0,188.2 500.4,188.2 500.7,188.2 501.1,188.3 501.5,188.3 501.9,188.4 502.3,188.4 502.7,188.4 503.1,188.5 503.5,188.5 503.9,188.5 504.2,188.6 504.6,188.6 505.0,188.6 505.4,188.7 505.8,188.7 506.2,188.7 506.6,188.8 507.0,188.8 507.4,188.8 507.7,188.9 508.1,188.9 508.5,188.9 508.9,188.9 509.3,189.0 509.7,189.0 510.1,189.0 510.5,189.0 510.9,189.1 511.3,189.1 511.6,189.1 512.0,189.1 512.4,189.2 512.8,189.2 513.2,189.2 513.6,186.9 514.0,184.8 514.4,183.0 514.8,181.3 515.1,179.8 515.5,178.4 515.9,177.1 516.3,175.8 516.7,174.5 517.1,173.3 517.5,172.2 517.9,171.0 518.3,169.9 518.7,168.8 519.0,167.8 519.4,166.7 519.8,165.7 520.2,164.7 520.6,163.7 521.0,162.7 521.4,161.8 521.8,160.8 522.2,159.9 522.5,159.0 522.9,159.5 523.3,160.0 523.7,160.4 524.1,160.9 524.5,161.4 524.9,161.9 525.3,162.3 525.7,162.8 526.0,163.3 526.4,163.8 526.8,164.3 527.2,164.7 527.6,165.2 528.0,165.7 528.4,166.2 528.8,166.6 529.2,167.1 529.6,167.6 529.9,168.1 530.3,168.5 530.7,169.0 531.1,169.5 531.5,170.0 531.9,170.5 532.3,170.9 532.7,171.4 533.1,171.9 533.4,172.4 533.8,172.8 534.2,173.3 534.6,173.8 535.0,174.3 535.4,174.8 535.8,175.2 536.2,175.7 536.6,176.2 536.9,177.0 537.3,177.7 537.7,178.4 538.1,178.9 538.5,179.2 538.9,179.3 539.3,179.2 539.7,178.9 540.1,178.4 540.5,177.8 540.8,177.0 541.2,176.2 541.6,176.5 542.0,176.7 542.4,177.0 542.8,177.3 543.2,177.5 543.6,177.8 544.0,178.1 544.3,178.3 544.7,178.5 545.1,178.8 545.5,179.0 545.9,179.2 546.3,179.5 546.7,179.7 547.1,179.9 547.5,180.1 547.9,180.3 548.2,180.5 548.6,180.7 549.0,180.9 549.4,181.1 549.8,181.3 550.2,181.4 550.6,181.6 551.0,181.8 551.4,182.0 551.7,182.1 552.1,182.3 552.5,182.4 552.9,182.6 553.3,182.8 553.7,182.9 554.1,183.1 554.5,183.2 554.9,183.3 555.2,183.5 555.6,183.6 556.0,183.8 556.4,183.9 556.8,184.0 557.2,184.1 557.6,184.3 558.0,184.4 558.4,184.5 558.8,184.6 559.1,184.7 559.5,184.8 559.9,184.9 560.3,185.1 560.7,185.2 561.1,185.3 561.5,185.4 561.9,185.5 562.3,185.6 562.6,185.6 563.0,185.7 563.4,185.8 563.8,185.9 564.2,186.0 564.6,186.1 565.0,186.2 565.4,186.3 565.8,186.3 566.1,186.4 566.5,186.5 566.9,186.6 567.3,186.6 567.7,186.7 568.1,186.8 568.5,186.9 568.9,186.9 569.3,187.0 569.7,187.1 570.0,187.1 570.4,187.2 570.8,187.2 571.2,187.3 571.6,187.4 572.0,187.4 572.4,187.5 572.8,187.5 573.2,187.6 573.5,187.6 573.9,187.7 574.3,187.7 574.7,187.8 575.1,187.8 575.5,187.9 575.9,187.9 576.3,188.0 576.7,188.0 577.1,188.1 577.4,188.1 577.8,188.2 578.2,188.2 578.6,188.2 579.0,188.3 579.4,188.3 579.8,188.4 580.2,188.4 580.6,188.4 580.9,188.5 581.3,188.5 581.7,188.5 582.1,188.6 582.5,188.6 582.9,188.6 583.3,188.7 583.7,188.7 584.1,188.7 584.4,188.8 584.8,188.8 585.2,188.8 585.6,188.9 586.0,188.9 586.4,188.9 586.8,188.9 587.2,189.0 587.6,189.0 588.0,189.0 588.3,189.0 588.7,189.1 589.1,189.1 589.5,189.1 589.9,189.1 590.3,189.2 590.7,189.2 591.1,189.2 591.5,186.9 591.8,184.8 592.2,183.0 592.6,181.3 593.0,179.8 593.4,178.4 593.8,177.1 594.2,175.8 594.6,174.5 595.0,173.3 595.3,172.2 595.7,171.0 596.1,169.9 596.5,168.8 596.9,167.8 597.3,166.7 597.7,165.7 598.1,164.7 598.5,163.7 598.9,162.7 599.2,161.8 599.6,160.8 600.0,159.9 600.4,159.0 600.8,159.5 601.2,160.0 601.6,160.4 602.0,160.9 602.4,161.4 602.7,161.9 603.1,162.3 603.5,162.8 603.9,163.3 604.3,163.8 604.7,164.3 605.1,164.7 605.5,165.2 605.9,165.7 606.3,166.2 606.6,166.6 607.0,167.1 607.4,167.6 607.8,168.1 608.2,168.5 608.6,169.0 609.0,169.5 609.4,170.0 609.8,170.5 610.1,170.9 610.5,171.4 610.9,171.9 611.3,172.4 611.7,172.8 612.1,173.3 612.5,173.8 612.9,174.3 613.3,174.8 613.6,175.2 614.0,175.7 614.4,176.2 614.8,177.0 615.2,177.7 615.6,178.4 616.0,178.9 616.4,179.2 616.8,179.3 617.2,179.2 617.5,178.9 617.9,178.4 618.3,177.8 618.7,177.0 619.1,176.2 619.5,176.5 619.9,176.7 620.3,177.0 620.7,177.3 621.0,177.5 621.4,177.8 621.8,178.1 622.2,178.3 622.6,178.5 623.0,178.8 623.4,179.0 623.8,179.2 624.2,179.5 624.5,179.7 624.9,179.9 625.3,180.1 625.7,180.3 626.1,180.5 626.5,180.7 626.9,180.9 627.3,181.1 627.7,181.3 628.1,181.4 628.4,181.6 628.8,181.8 629.2,182.0 629.6,182.1 630.0,182.3"/>
<text x="630" y="252" class="eje" text-anchor="end">6 segundos</text>
<text x="8" y="16" class="titulo">Prueba de la onda cuadrada (mmHg)</text>
<text x="630" y="16" class="nota" text-anchor="end">lavado rápido</text>
</svg>
